<svg xmlns="http://www.w3.org/2000/svg" viewBox="0 0 28 52"><path fill="#000" d="M13.9 3.4C14.2 3.5 14.9 3.6 15.5 3.7C16 3.8 16.6 3.8 17.1 3.9C17.6 3.9 18.1 4 18.7 4C19.2 4.1 19.7 4.2 20.2 4.3C20.6 4.4 21.1 4.5 21.5 4.7C21.9 4.8 22.3 5.1 22.6 5.4C22.9 5.7 23.1 6.1 23.3 6.5C23.5 6.9 23.7 7.4 23.8 7.8C24 8.3 24 8.8 24.1 9.3C24.2 9.8 24.3 10.4 24.4 10.9C24.5 11.4 24.5 11.9 24.6 12.4C24.7 13 24.7 13.5 24.8 14C24.8 14.5 24.9 15 24.9 15.6C25 16.1 25 16.6 25 17.1C25 17.7 25 18.2 25.1 18.7C25.1 19.3 25.1 19.8 25.1 20.3C25.1 20.8 25.1 21.4 25.1 21.9C25.1 22.4 25.1 23 25.1 23.5C25.1 24 25.1 24.6 25.1 25.1C25.1 25.6 25.1 26.1 25.1 26.7C25 27.2 25 27.7 25 28.3C25 28.8 24.9 29.3 24.9 29.8C24.9 30.4 24.8 30.9 24.8 31.4C24.8 32 24.7 32.5 24.7 33C24.6 33.5 24.5 34.1 24.5 34.6C24.4 35.1 24.4 35.6 24.3 36.2C24.3 36.7 24.2 37.2 24.1 37.7C24 38.2 24 38.7 23.8 39.1C23.7 39.6 23.5 40 23.2 40.4C23 40.7 22.6 41 22.3 41.3C21.9 41.5 21.5 41.7 21 41.9C20.6 42.1 20.1 42.2 19.6 42.3C19.1 42.4 18.6 42.5 18.1 42.6C17.6 42.6 17 42.7 16.5 42.7C16 42.8 15.5 42.8 15 42.8C14.4 42.8 13.9 42.8 13.4 42.8C12.9 42.8 12.4 42.8 11.8 42.8C11.3 42.7 10.8 42.7 10.3 42.6C9.8 42.6 9.3 42.5 8.8 42.4C8.3 42.3 7.8 42.2 7.3 42C6.8 41.8 6.4 41.7 6 41.4C5.6 41.2 5.2 40.9 4.9 40.6C4.7 40.3 4.5 39.9 4.3 39.4C4.1 39 4 38.5 3.9 38C3.8 37.6 3.8 37 3.7 36.5C3.7 36 3.6 35.5 3.6 34.9C3.5 34.4 3.4 33.9 3.4 33.4C3.3 32.8 3.3 32.3 3.2 31.8C3.2 31.3 3.1 30.7 3.1 30.2C3.1 29.7 3.1 29.1 3 28.6C3 28.1 3 27.6 3 27C2.9 26.5 2.9 26 2.9 25.4C2.9 24.9 2.9 24.4 2.9 23.9C2.9 23.3 2.9 22.8 2.9 22.3C2.9 21.7 2.9 21.2 2.9 20.7C2.9 20.1 2.9 19.6 2.9 19.1C2.9 18.6 3 18 3 17.5C3 17 3 16.4 3.1 15.9C3.1 15.4 3.1 14.9 3.2 14.4C3.2 13.8 3.3 13.3 3.3 12.8C3.4 12.3 3.5 11.7 3.6 11.2C3.6 10.7 3.7 10.2 3.8 9.7C3.9 9.1 4 8.6 4.1 8.2C4.2 7.7 4.3 7.2 4.5 6.8C4.7 6.3 4.9 5.9 5.2 5.6C5.5 5.3 5.8 5 6.2 4.8C6.6 4.6 7.1 4.4 7.5 4.3C8 4.2 8.5 4.1 9 4.1C9.5 4 10 4 10.6 3.9C11.1 3.9 11.6 3.8 12.2 3.8C12.8 3.7 13.7 3.6 14.1 3.5C14.6 3.4 14.6 3.3 14.7 3.1C14.8 3 14.9 2.7 14.9 2.5C14.8 2.3 14.7 2 14.5 1.9C14.3 1.8 14.3 1.7 13.9 1.7C13.4 1.8 12.5 2 12 2C11.4 2.1 10.9 2.1 10.4 2.2C9.8 2.2 9.3 2.3 8.8 2.4C8.2 2.4 7.6 2.5 7.1 2.7C6.5 2.8 5.9 3 5.4 3.3C4.8 3.6 4.3 4 3.9 4.5C3.5 4.9 3.2 5.5 2.9 6.1C2.7 6.6 2.5 7.2 2.4 7.7C2.3 8.3 2.2 8.8 2.1 9.4C2 9.9 1.9 10.4 1.8 11C1.8 11.5 1.7 12 1.6 12.6C1.5 13.1 1.5 13.6 1.4 14.2C1.4 14.7 1.3 15.3 1.3 15.8C1.3 16.3 1.2 16.9 1.2 17.4C1.2 18 1.2 18.5 1.1 19C1.1 19.6 1.1 20.1 1.1 20.7C1.1 21.2 1.1 21.7 1.1 22.3C1.1 22.8 1.1 23.3 1.1 23.9C1.1 24.4 1.1 24.9 1.1 25.5C1.1 26 1.2 26.6 1.2 27.1C1.2 27.6 1.2 28.2 1.3 28.7C1.3 29.2 1.3 29.8 1.4 30.3C1.4 30.9 1.4 31.4 1.5 31.9C1.5 32.5 1.6 33 1.6 33.5C1.7 34.1 1.8 34.6 1.8 35.1C1.9 35.7 2 36.2 2 36.7C2.1 37.3 2.2 37.8 2.3 38.4C2.4 38.9 2.5 39.5 2.7 40.1C3 40.6 3.3 41.2 3.7 41.7C4.1 42.1 4.6 42.5 5.2 42.8C5.7 43.2 6.2 43.4 6.8 43.5C7.3 43.7 7.9 43.8 8.4 44C9 44.1 9.5 44.2 10.1 44.2C10.6 44.3 11.2 44.3 11.7 44.4C12.3 44.4 12.8 44.4 13.4 44.4C13.9 44.4 14.5 44.4 15 44.4C15.5 44.4 16.1 44.4 16.6 44.4C17.2 44.3 17.7 44.3 18.3 44.2C18.8 44.1 19.4 44 19.9 43.9C20.5 43.8 21 43.6 21.6 43.4C22.1 43.2 22.7 43 23.2 42.6C23.7 42.3 24.2 41.8 24.6 41.4C24.9 40.9 25.2 40.3 25.4 39.7C25.6 39.1 25.7 38.6 25.8 38C25.9 37.5 25.9 36.9 26 36.4C26.1 35.8 26.1 35.3 26.2 34.8C26.2 34.2 26.3 33.7 26.4 33.2C26.4 32.6 26.5 32.1 26.5 31.6C26.6 31 26.6 30.5 26.6 30C26.7 29.4 26.7 28.9 26.7 28.3C26.7 27.8 26.8 27.3 26.8 26.7C26.8 26.2 26.8 25.7 26.8 25.1C26.8 24.6 26.8 24 26.8 23.5C26.8 23 26.8 22.4 26.8 21.9C26.8 21.4 26.8 20.8 26.8 20.3C26.8 19.8 26.8 19.2 26.7 18.7C26.7 18.1 26.7 17.6 26.7 17.1C26.6 16.5 26.6 16 26.6 15.5C26.5 14.9 26.5 14.4 26.4 13.8C26.4 13.3 26.3 12.8 26.2 12.2C26.2 11.7 26.1 11.2 26 10.6C25.9 10.1 25.9 9.6 25.8 9C25.7 8.5 25.6 7.9 25.4 7.4C25.3 6.8 25.1 6.3 24.8 5.7C24.5 5.2 24.2 4.6 23.8 4.2C23.3 3.8 22.8 3.4 22.2 3.1C21.7 2.9 21.1 2.7 20.5 2.6C20 2.5 19.4 2.4 18.9 2.3C18.3 2.3 17.8 2.2 17.3 2.2C16.7 2.1 16.2 2 15.7 2C15.2 1.9 14.5 1.7 14.1 1.7C13.8 1.7 13.7 1.7 13.5 1.9C13.3 2 13.2 2.2 13.1 2.4C13.1 2.6 13.2 2.9 13.3 3.1C13.4 3.2 13.5 3.3 13.9 3.4ZM13.7 6.9C13.7 6.9 13.7 7 13.9 7.3C14.1 7.6 14.6 8.5 14.8 8.8C15 9.1 15 9.1 15.1 9.2C15.2 9.3 15.2 9.2 15.6 9.3C16 9.3 17 9.3 17.4 9.4C17.8 9.4 17.9 9.3 17.9 9.4C17.9 9.5 17.8 9.5 17.5 9.8C17.3 10 16.6 10.8 16.3 11.1C16 11.4 16 11.3 16 11.5C15.9 11.6 16 11.6 16.2 12C16.3 12.5 16.8 13.6 16.9 14.1C17.1 14.5 17.2 14.6 17.1 14.7C17.1 14.7 17 14.6 16.6 14.4C16.2 14.1 15.1 13.5 14.7 13.3C14.3 13.1 14.3 13 14.2 13C14 13 14.1 13.1 13.7 13.3C13.4 13.5 12.5 14.1 12.2 14.3C11.9 14.5 11.9 14.6 11.8 14.6C11.7 14.6 11.8 14.5 11.8 14.1C11.8 13.7 11.9 12.7 11.9 12.4C11.9 12 12 12 11.9 11.9C11.8 11.7 11.8 11.8 11.4 11.5C11.1 11.3 10.2 10.5 9.9 10.3C9.6 10 9.4 10 9.5 9.9C9.5 9.8 9.6 9.9 10 9.8C10.4 9.7 11.6 9.5 12 9.4C12.4 9.3 12.4 9.4 12.5 9.3C12.7 9.2 12.6 9.2 12.7 8.9C12.9 8.5 13.3 7.6 13.5 7.3C13.6 7 13.6 6.9 13.7 6.9ZM6.1 24.2C6.3 24.1 7.1 23.9 7.6 23.8C8.2 23.8 8.8 23.7 9.3 23.7C9.9 23.6 10.4 23.7 10.9 23.6C11.5 23.6 11.9 23.6 12.4 23.5C12.9 23.5 13.3 23.3 13.7 23.3C14.1 23.3 14.5 23.3 15 23.4C15.4 23.4 15.8 23.5 16.3 23.6C16.8 23.6 17.3 23.7 17.9 23.7C18.4 23.7 19 23.7 19.5 23.8C20.1 23.8 20.8 23.9 21.2 24C21.6 24 21.8 24.1 22 24.1C22.1 24.1 22.1 24.1 22.1 24.1C22.1 24.1 22.2 24 22.2 24C22.2 24 22.2 23.9 22.2 23.9C22.1 23.8 22.2 23.9 22.1 23.8C21.9 23.7 21.7 23.7 21.3 23.5C21 23.4 20.4 23 20 22.7C19.5 22.3 19.1 21.9 18.7 21.5C18.2 21.2 17.8 20.8 17.2 20.5C16.7 20.2 16.1 20 15.5 19.9C14.8 19.8 14.2 19.9 13.5 19.9C12.9 20 12.2 20.1 11.7 20.3C11.1 20.5 10.6 20.8 10.1 21.1C9.6 21.4 9.1 21.8 8.7 22.1C8.2 22.4 7.8 22.8 7.4 23.1C6.9 23.4 6.2 23.7 5.9 23.8C5.7 24 5.9 23.9 5.8 23.9C5.8 24 5.8 24 5.8 24.1C5.9 24.1 5.9 24.1 5.9 24.2C6 24.2 5.8 24.2 6.1 24.2ZM11.8 32.9C11.9 32.8 12 32.6 12.1 32.5C12.2 32.3 12.3 32.2 12.4 32C12.6 31.9 12.7 31.7 12.8 31.6C12.9 31.4 13 31.3 13.1 31.2C13.2 31 13.3 30.9 13.4 30.7C13.6 30.6 13.8 30.4 13.8 30.3C13.8 30.2 13.6 30.1 13.5 30.1C13.5 30.1 13.3 30.1 13.3 30.3C13.3 30.4 13.4 30.6 13.5 30.8C13.6 31 13.7 31.3 13.9 31.5C14 31.6 14.4 31.7 14.6 31.8C14.9 31.8 15.1 31.7 15.3 31.7C15.5 31.7 15.7 31.7 15.9 31.6C16 31.6 16.3 31.7 16.3 31.6C16.3 31.5 16.1 31.2 16.1 31.2C16 31.1 15.9 31.2 15.9 31.3C15.8 31.5 15.7 31.7 15.6 31.8C15.5 32 15.4 32.2 15.4 32.3C15.3 32.5 15.2 32.6 15.1 32.8C15 33 14.9 33.2 14.9 33.3C14.8 33.4 14.8 33.6 14.8 33.6C14.8 33.6 14.9 33.5 14.9 33.5C14.8 33.4 14.6 33.4 14.5 33.3C14.3 33.2 14.1 33.2 14 33.1C13.8 33 13.6 32.9 13.5 32.9C13.3 32.8 13.1 32.7 13 32.6C12.8 32.6 12.6 32.5 12.4 32.4C12.3 32.3 12.1 32.3 11.9 32.2C11.8 32.1 11.7 32 11.6 32C11.4 32 11.2 31.9 11.1 32C11 32 10.8 32.2 10.8 32.3C10.7 32.4 10.7 32.6 10.8 32.8C10.8 32.9 11 33 11.1 33.1C11.2 33.2 11.3 33.2 11.5 33.3C11.6 33.3 11.8 33.4 12 33.5C12.1 33.6 12.3 33.6 12.5 33.7C12.6 33.8 12.8 33.9 13 33.9C13.2 34 13.3 34.1 13.5 34.2C13.7 34.2 13.8 34.3 14 34.4C14.2 34.5 14.3 34.6 14.6 34.6C14.8 34.7 15.3 34.7 15.5 34.5C15.7 34.4 15.8 34 15.9 33.8C16 33.6 16.1 33.5 16.2 33.3C16.3 33.2 16.3 33 16.4 32.9C16.5 32.7 16.6 32.5 16.7 32.4C16.7 32.2 16.8 32.1 16.9 31.9C17 31.7 17.3 31.3 17.2 31.1C17.1 30.8 16.6 30.5 16.4 30.4C16.1 30.3 15.9 30.5 15.7 30.5C15.5 30.5 15.3 30.5 15.2 30.5C15 30.6 14.8 30.6 14.8 30.6C14.7 30.6 14.7 30.7 14.7 30.6C14.7 30.6 14.7 30.4 14.6 30.3C14.6 30.2 14.6 30 14.4 29.8C14.3 29.6 14 29 13.8 28.9C13.5 28.9 13.1 29.4 12.9 29.6C12.7 29.7 12.6 29.9 12.5 30C12.4 30.2 12.3 30.3 12.2 30.5C12.1 30.6 12 30.7 11.9 30.9C11.7 31 11.6 31.2 11.5 31.3C11.4 31.5 11.3 31.6 11.2 31.8C11.1 31.9 10.9 32 10.8 32.2C10.8 32.3 10.7 32.5 10.7 32.6C10.7 32.8 10.8 32.9 11 33C11.1 33.1 11.3 33.2 11.4 33.1C11.5 33.1 11.7 33 11.8 32.9ZM13.5 29.5C13.5 29.7 13.5 29.9 13.5 30.1C13.5 30.3 13.5 30.5 13.5 30.6C13.6 30.8 13.6 31 13.7 31.2C13.7 31.4 13.7 31.5 13.7 31.7C13.8 31.9 13.8 32.1 13.9 32.3C13.9 32.5 14 32.7 14.1 32.8C14.2 33 14.3 33.2 14.4 33.3C14.5 33.5 14.6 33.6 14.7 33.8C14.8 33.9 14.9 34.2 15 34.3C15.1 34.3 15 34.3 15 34.3C15.1 34.3 15.1 34.3 15.1 34.3C15.1 34.3 15.1 34.3 15.2 34.2C15.2 34.2 15.2 34.3 15.2 34.2C15.1 34.1 15 33.8 15 33.6C14.9 33.5 14.9 33.3 14.8 33.1C14.8 32.9 14.7 32.7 14.6 32.6C14.6 32.4 14.5 32.3 14.4 32.1C14.4 32 14.4 31.8 14.3 31.6C14.3 31.4 14.3 31.3 14.2 31.1C14.2 30.9 14.2 30.7 14.1 30.5C14.1 30.4 14.1 30.2 14 30C13.9 29.8 13.9 29.6 13.8 29.5C13.8 29.4 13.8 29.4 13.7 29.3C13.7 29.3 13.7 29.3 13.6 29.3C13.6 29.3 13.5 29.4 13.5 29.4C13.5 29.4 13.5 29.4 13.5 29.5ZM4.1 50.3C4.4 50.4 5.1 50.3 5.7 50.3C6.2 50.2 6.8 50.3 7.3 50.3C7.8 50.2 8.3 50.2 8.9 50.1C9.4 50.1 9.9 50.1 10.5 50C11 50 11.5 50 12 50C12.5 50 13.1 49.9 13.6 49.9C14.1 49.9 14.6 49.9 15.1 50C15.6 50 16.2 50 16.7 50C17.2 50.1 17.7 50.1 18.3 50.1C18.8 50.1 19.3 50.1 19.9 50.1C20.4 50.1 20.9 50.1 21.5 50.1C22 50.1 22.7 50.1 23.1 50.2C23.5 50.2 23.7 50.3 23.9 50.3C24.2 50.3 24.3 50.2 24.4 50.1C24.5 50 24.6 49.8 24.7 49.7C24.7 49.5 24.6 49.3 24.5 49.2C24.4 49.1 24.3 49 24.1 49C23.8 48.9 23.6 48.9 23.2 48.8C22.8 48.8 22.1 48.6 21.6 48.6C21.1 48.5 20.6 48.4 20 48.3C19.5 48.2 19 48.1 18.4 48C17.9 47.9 17.4 47.9 16.8 47.8C16.3 47.8 15.7 47.7 15.2 47.7C14.7 47.6 14.1 47.6 13.5 47.6C13 47.7 12.5 47.7 11.9 47.8C11.4 47.8 10.8 47.9 10.3 47.9C9.7 48 9.2 48 8.7 48.1C8.1 48.1 7.6 48.1 7.1 48.2C6.5 48.3 6 48.5 5.5 48.6C5 48.7 4.3 48.8 3.9 48.9C3.6 49 3.6 49.1 3.5 49.2C3.4 49.3 3.3 49.5 3.3 49.7C3.3 49.9 3.4 50.1 3.6 50.2C3.7 50.3 3.7 50.3 4.1 50.3Z"/></svg>