<svg xmlns="http://www.w3.org/2000/svg" viewBox="0 0 48 48"><path fill="#000" d="M25 43.9C25 43.5 24.9 42.6 24.8 41.9C24.8 41.2 24.7 40.5 24.7 39.9C24.6 39.2 24.6 38.6 24.5 37.9C24.4 37.2 24.3 36.6 24.3 36C24.2 35.3 24.1 34.7 24.1 34C24.1 33.4 24.1 32.8 24.1 32.1C24.1 31.5 24.2 30.9 24.3 30.2C24.4 29.6 24.5 28.9 24.7 28.3C24.8 27.7 25 27.1 25.2 26.4C25.3 25.8 25.5 25.2 25.7 24.6C25.9 24 26.1 23.4 26.3 22.8C26.5 22.2 26.8 21.6 27 21C27.2 20.4 27.4 19.8 27.7 19.2C27.9 18.6 28.2 18 28.5 17.5C28.8 16.9 29.1 16.3 29.4 15.7C29.7 15.1 30.1 14.6 30.5 14C30.8 13.4 31.2 12.9 31.6 12.3C32 11.8 32.5 11.1 32.7 10.7C33 10.3 33.1 10.2 33.2 10.1C33.2 10 33.2 10 33.2 9.9C33.2 9.9 33.1 9.8 33.1 9.8C33.1 9.7 33 9.7 32.9 9.7C32.9 9.7 32.9 9.7 32.8 9.8C32.7 9.9 32.6 10.1 32.3 10.4C32 10.8 31.5 11.4 31 11.9C30.6 12.4 30.1 12.9 29.7 13.4C29.2 13.9 28.7 14.4 28.3 14.9C27.8 15.4 27.3 15.9 26.9 16.4C26.5 16.9 26 17.5 25.6 18.1C25.3 18.7 24.9 19.3 24.6 19.9C24.3 20.6 24.1 21.2 23.8 21.9C23.6 22.5 23.4 23.2 23.2 23.9C23 24.5 22.9 25.2 22.8 25.9C22.6 26.5 22.5 27.2 22.4 27.9C22.3 28.6 22.2 29.2 22.1 29.9C22 30.6 21.9 31.3 21.9 32C21.8 32.7 21.8 33.4 21.8 34.1C21.8 34.8 21.8 35.5 21.8 36.2C21.9 36.8 22 37.5 22.1 38.2C22.2 38.9 22.3 39.5 22.4 40.2C22.6 40.8 22.7 41.5 22.8 42.1C23 42.8 23 43.7 23.1 44.1C23.2 44.5 23.3 44.6 23.5 44.7C23.6 44.8 23.9 44.9 24.1 44.9C24.4 44.9 24.6 44.7 24.8 44.6C24.9 44.4 24.9 44.3 25 43.9ZM23.5 32.6C23.2 32.5 22.3 32.1 21.7 31.7C21.1 31.3 20.6 30.7 20.1 30.1C19.6 29.6 19.1 28.8 18.7 28.3C18.3 27.8 18 27.5 17.7 27.2C17.3 26.9 16.9 26.8 16.5 26.6C16 26.4 15.6 26.2 15 26C14.4 25.8 13.7 25.5 13 25.2C12.4 24.9 11.6 24.7 11 24.3C10.3 23.9 9.5 23.1 9.2 22.9C8.8 22.6 9.1 22.8 9 22.8C9 22.8 8.9 22.8 8.9 22.9C8.9 22.9 8.8 22.9 8.8 23C8.8 23 8.7 22.7 8.9 23.1C9 23.5 9.6 24.4 9.8 25.2C10 25.9 10 26.6 10.2 27.4C10.3 28.2 10.4 29 10.7 29.7C11 30.5 11.3 31.4 11.9 32.1C12.4 32.8 13.1 33.5 13.9 33.9C14.7 34.3 15.7 34.4 16.5 34.3C17.4 34.3 18.2 34 19 33.8C19.8 33.6 20.5 33.4 21.2 33.3C21.9 33.2 22.9 33.4 23.3 33.4C23.7 33.4 23.5 33.4 23.6 33.3C23.7 33.3 23.7 33.2 23.8 33.1C23.8 33 23.8 32.9 23.7 32.8C23.7 32.8 23.8 32.8 23.5 32.6ZM25 24.4C25.4 24.5 26.4 24.5 27.1 24.7C27.8 24.9 28.4 25.4 29.2 25.7C29.9 26 30.7 26.4 31.5 26.5C32.4 26.6 33.4 26.6 34.2 26.3C35.1 26.1 36 25.5 36.7 24.9C37.3 24.3 37.7 23.3 38 22.6C38.3 21.8 38.4 20.9 38.6 20.1C38.8 19.4 39 18.6 39.2 18.1C39.5 17.5 40 17 40.2 16.8C40.3 16.5 40.2 16.7 40.2 16.6C40.2 16.6 40.2 16.5 40.2 16.5C40.1 16.5 40.1 16.4 40 16.4C40 16.4 40.1 16.3 39.9 16.5C39.6 16.6 39.1 17.1 38.5 17.4C38 17.7 37.2 18 36.5 18.2C35.8 18.5 35.1 18.7 34.4 18.8C33.8 18.9 33.2 19 32.7 19.1C32.2 19.2 32 19.3 31.6 19.5C31.2 19.6 30.8 19.9 30.4 20.3C29.9 20.6 29.4 21.1 28.8 21.6C28.2 22 27.5 22.5 26.9 22.9C26.3 23.2 25.3 23.5 25 23.6C24.6 23.8 24.8 23.7 24.7 23.8C24.6 23.8 24.6 24 24.6 24C24.6 24.1 24.7 24.2 24.8 24.3C24.8 24.4 24.7 24.3 25 24.4ZM29.2 14.9C29.3 14.5 29.4 13.5 29.5 12.8C29.7 12 30 11.2 30.1 10.6C30.2 10.1 30.2 9.7 30.2 9.3C30.2 8.9 30.1 8.7 30 8.2C30 7.7 29.8 6.9 29.9 6.2C30 5.5 30.4 4.4 30.5 4C30.6 3.7 30.5 4 30.5 3.9C30.5 3.9 30.5 3.9 30.4 3.8C30.4 3.8 30.4 3.8 30.3 3.8C30.3 3.8 30.5 3.7 30.2 3.9C29.9 4.1 29.1 4.7 28.5 5.1C27.8 5.6 26.7 5.8 26.1 6.4C25.5 7.1 24.8 8.2 24.7 9.1C24.6 10 25.1 11 25.6 11.7C26.1 12.4 27.1 12.8 27.6 13.3C28.1 13.9 28.5 14.8 28.7 15.1C28.9 15.4 28.8 15.2 28.8 15.3C28.9 15.3 29 15.3 29 15.3C29.1 15.3 29.2 15.2 29.2 15.1C29.2 15.1 29.2 15.3 29.2 14.9Z"/></svg>