<svg xmlns="http://www.w3.org/2000/svg" class="picto" viewBox="0 0 120 120" role="img" aria-label="The Hilbert curve"><style>text{font-family:'Cormorant Garamond',serif;fill:#2a1d12}path,line,polyline,polygon,circle,ellipse{fill:none;stroke:#2a1d12;stroke-width:1.4;stroke-linecap:round;stroke-linejoin:round}.fill{fill:#2a1d12;stroke:none}.paper{fill:#efe4c8}.thin{stroke-width:.8;opacity:.7}a{fill:inherit}.ret{stroke:#3d6e60}.w{fill:#8a2c1c;font-style:italic}.r{fill:#3d6e60;font-style:italic}.head{font-size:15px;fill:#6b4a2e;letter-spacing:.1em}.bin{font-style:italic}.cn{fill:#8a7458;font-size:16px}.ord{font-size:15px;fill:#6b4a2e;letter-spacing:.08em}.king{font-size:20px;letter-spacing:.1em}.dom{font-size:26px;letter-spacing:.12em}.scale,.tick{font-size:16px;font-style:italic;fill:#6b4a2e}.sp{font-size:17px}</style><polyline points="14,106 14,93 27,93 27,106 40,106 53,106 53,93 40,93 40,80 53,80 53,67 40,67 27,67 27,80 14,80 14,67 14,54 27,54 27,41 14,41 14,28 14,15 27,15 27,28 40,28 40,15 53,15 53,28 53,41 40,41 40,54 53,54 66,54 79,54 79,41 66,41 66,28 66,15 79,15 79,28 92,28 92,15 105,15 105,28 105,41 92,41 92,54 105,54 105,67 105,80 92,80 92,67 79,67 66,67 66,80 79,80 79,93 66,93 66,106 79,106 92,106 92,93 105,93 105,106" /></svg>